<svg xmlns="http://www.w3.org/2000/svg" width="1005" height="350" viewBox="0 0 1005 350" role="img">
<title>RTX 4090 (sm_89) FP16 GEMM Performance</title>
<rect width="100%" height="100%" fill="#ffffff"/>
<style>text{font-family:Arial,Helvetica,sans-serif;fill:#111827}.title{font-size:24px;font-weight:700}.header{font-size:16px;font-weight:700}.cell{font-size:15px}.grid{stroke:#cbd5e1;stroke-width:1}</style>
<text class="title" x="20" y="46">RTX 4090 (sm_89) FP16 GEMM Performance</text>
<rect x="20" y="70" width="965" height="52" fill="#ffffff"/>
<rect x="20" y="122" width="965" height="52" fill="#f3f6f9"/>
<rect x="20" y="174" width="965" height="52" fill="#ffffff"/>
<rect x="20" y="226" width="965" height="52" fill="#f3f6f9"/>
<rect x="20" y="278" width="965" height="52" fill="#ffffff"/>
<rect class="grid" x="20" y="70" width="180" height="260" fill="none"/>
<text class="header" text-anchor="middle" x="110.0" y="102">Shape</text>
<rect class="grid" x="200" y="70" width="110" height="260" fill="none"/>
<text class="header" text-anchor="middle" x="255.0" y="102">RegVec</text>
<rect class="grid" x="310" y="70" width="145" height="260" fill="none"/>
<text class="header" text-anchor="middle" x="382.5" y="102">WMMA Block</text>
<rect class="grid" x="455" y="70" width="150" height="260" fill="none"/>
<text class="header" text-anchor="middle" x="530.0" y="102">WMMA Async</text>
<rect class="grid" x="605" y="70" width="125" height="260" fill="none"/>
<text class="header" text-anchor="middle" x="667.5" y="102">MMA PTX</text>
<rect class="grid" x="730" y="70" width="110" height="260" fill="none"/>
<text class="header" text-anchor="middle" x="785.0" y="102">cuBLAS</text>
<rect class="grid" x="840" y="70" width="145" height="260" fill="none"/>
<text class="header" text-anchor="middle" x="912.5" y="102">Best/cuBLAS</text>
<line class="grid" x1="20" x2="200" y1="122" y2="122"/>
<text class="cell" text-anchor="middle" x="110.0" y="154">128x128x128</text>
<line class="grid" x1="200" x2="310" y1="122" y2="122"/>
<text class="cell" text-anchor="middle" x="255.0" y="154">0.415</text>
<line class="grid" x1="310" x2="455" y1="122" y2="122"/>
<text class="cell" text-anchor="middle" x="382.5" y="154">0.502</text>
<line class="grid" x1="455" x2="605" y1="122" y2="122"/>
<text class="cell" text-anchor="middle" x="530.0" y="154">1.006</text>
<line class="grid" x1="605" x2="730" y1="122" y2="122"/>
<text class="cell" text-anchor="middle" x="667.5" y="154">1.206</text>
<line class="grid" x1="730" x2="840" y1="122" y2="122"/>
<text class="cell" text-anchor="middle" x="785.0" y="154">0.785</text>
<line class="grid" x1="840" x2="985" y1="122" y2="122"/>
<text class="cell" text-anchor="middle" x="912.5" y="154">153.7%</text>
<line class="grid" x1="20" x2="200" y1="174" y2="174"/>
<text class="cell" text-anchor="middle" x="110.0" y="206">512x512x512</text>
<line class="grid" x1="200" x2="310" y1="174" y2="174"/>
<text class="cell" text-anchor="middle" x="255.0" y="206">7.652</text>
<line class="grid" x1="310" x2="455" y1="174" y2="174"/>
<text class="cell" text-anchor="middle" x="382.5" y="206">9.620</text>
<line class="grid" x1="455" x2="605" y1="174" y2="174"/>
<text class="cell" text-anchor="middle" x="530.0" y="206">24.848</text>
<line class="grid" x1="605" x2="730" y1="174" y2="174"/>
<text class="cell" text-anchor="middle" x="667.5" y="206">25.095</text>
<line class="grid" x1="730" x2="840" y1="174" y2="174"/>
<text class="cell" text-anchor="middle" x="785.0" y="206">43.330</text>
<line class="grid" x1="840" x2="985" y1="174" y2="174"/>
<text class="cell" text-anchor="middle" x="912.5" y="206">57.9%</text>
<line class="grid" x1="20" x2="200" y1="226" y2="226"/>
<text class="cell" text-anchor="middle" x="110.0" y="258">1024x1024x1024</text>
<line class="grid" x1="200" x2="310" y1="226" y2="226"/>
<text class="cell" text-anchor="middle" x="255.0" y="258">21.098</text>
<line class="grid" x1="310" x2="455" y1="226" y2="226"/>
<text class="cell" text-anchor="middle" x="382.5" y="258">27.951</text>
<line class="grid" x1="455" x2="605" y1="226" y2="226"/>
<text class="cell" text-anchor="middle" x="530.0" y="258">51.641</text>
<line class="grid" x1="605" x2="730" y1="226" y2="226"/>
<text class="cell" text-anchor="middle" x="667.5" y="258">34.190</text>
<line class="grid" x1="730" x2="840" y1="226" y2="226"/>
<text class="cell" text-anchor="middle" x="785.0" y="258">105.607</text>
<line class="grid" x1="840" x2="985" y1="226" y2="226"/>
<text class="cell" text-anchor="middle" x="912.5" y="258">48.9%</text>
<line class="grid" x1="20" x2="200" y1="278" y2="278"/>
<text class="cell" text-anchor="middle" x="110.0" y="310">257x511x1025</text>
<line class="grid" x1="200" x2="310" y1="278" y2="278"/>
<text class="cell" text-anchor="middle" x="255.0" y="310">3.868</text>
<line class="grid" x1="310" x2="455" y1="278" y2="278"/>
<text class="cell" text-anchor="middle" x="382.5" y="310">4.933</text>
<line class="grid" x1="455" x2="605" y1="278" y2="278"/>
<text class="cell" text-anchor="middle" x="530.0" y="310">4.932</text>
<line class="grid" x1="605" x2="730" y1="278" y2="278"/>
<text class="cell" text-anchor="middle" x="667.5" y="310">4.933</text>
<line class="grid" x1="730" x2="840" y1="278" y2="278"/>
<text class="cell" text-anchor="middle" x="785.0" y="310">24.098</text>
<line class="grid" x1="840" x2="985" y1="278" y2="278"/>
<text class="cell" text-anchor="middle" x="912.5" y="310">20.5%</text>
<line class="grid" x1="20" x2="985" y1="330" y2="330"/>
</svg>
